<mxfile host="Electron" agent="Mozilla/5.0 (Windows NT 10.0; Win64; x64) AppleWebKit/537.36 (KHTML, like Gecko) draw.io/27.0.9 Chrome/134.0.6998.205 Electron/35.4.0 Safari/537.36" version="27.0.9">
  <diagram name="Page-1" id="zFmJMafb9HTkHl1lC1mz">
    <mxGraphModel dx="908" dy="589" grid="1" gridSize="10" guides="1" tooltips="1" connect="1" arrows="1" fold="1" page="1" pageScale="1" pageWidth="827" pageHeight="1169" math="0" shadow="0">
      <root>
        <mxCell id="0" />
        <mxCell id="1" parent="0" />
        <mxCell id="wVYSVujueez5VibwqGBC-4" value="" style="rounded=0;whiteSpace=wrap;html=1;strokeColor=#0B08FF;" parent="1" vertex="1">
          <mxGeometry x="136" y="273" width="100" height="40" as="geometry" />
        </mxCell>
        <mxCell id="wVYSVujueez5VibwqGBC-6" value="" style="ellipse;whiteSpace=wrap;html=1;strokeColor=#17FF62;" parent="1" vertex="1">
          <mxGeometry x="342" y="263" width="147" height="50" as="geometry" />
        </mxCell>
        <mxCell id="wVYSVujueez5VibwqGBC-7" value="&lt;span style=&quot;font-size: 8px;&quot;&gt;Steps down the battery voltage to supply low-voltage DC loads&lt;/span&gt;" style="text;html=1;align=center;verticalAlign=middle;whiteSpace=wrap;rounded=0;" parent="1" vertex="1">
          <mxGeometry x="359" y="273" width="110" height="30" as="geometry" />
        </mxCell>
        <mxCell id="wVYSVujueez5VibwqGBC-8" value="" style="rounded=0;whiteSpace=wrap;html=1;strokeColor=#0B08FF;" parent="1" vertex="1">
          <mxGeometry x="138" y="343" width="100" height="40" as="geometry" />
        </mxCell>
        <mxCell id="wVYSVujueez5VibwqGBC-10" value="" style="ellipse;whiteSpace=wrap;html=1;strokeColor=#16FF7B;" parent="1" vertex="1">
          <mxGeometry x="343" y="333" width="147" height="50" as="geometry" />
        </mxCell>
        <mxCell id="wVYSVujueez5VibwqGBC-21" value="" style="rounded=0;whiteSpace=wrap;html=1;strokeColor=#0B08FF;" parent="1" vertex="1">
          <mxGeometry x="135" y="403" width="100" height="40" as="geometry" />
        </mxCell>
        <mxCell id="wVYSVujueez5VibwqGBC-23" value="" style="ellipse;whiteSpace=wrap;html=1;strokeColor=#16FF7B;" parent="1" vertex="1">
          <mxGeometry x="337" y="393" width="153" height="50" as="geometry" />
        </mxCell>
        <mxCell id="wVYSVujueez5VibwqGBC-24" value="&lt;div style=&quot;font-size: 8px;&quot;&gt;Converts grid AC power to DC.&lt;/div&gt;&lt;div style=&quot;font-size: 8px;&quot;&gt;Charges the Battery Pack with DC power.&lt;/div&gt;" style="text;html=1;align=center;verticalAlign=middle;whiteSpace=wrap;rounded=0;" parent="1" vertex="1">
          <mxGeometry x="354" y="403" width="113" height="30" as="geometry" />
        </mxCell>
        <mxCell id="wVYSVujueez5VibwqGBC-25" value="" style="rounded=0;whiteSpace=wrap;html=1;strokeColor=#0B08FF;" parent="1" vertex="1">
          <mxGeometry x="135" y="473" width="100" height="40" as="geometry" />
        </mxCell>
        <mxCell id="wVYSVujueez5VibwqGBC-27" value="" style="ellipse;whiteSpace=wrap;html=1;strokeColor=#16FF7B;" parent="1" vertex="1">
          <mxGeometry x="336" y="460" width="154" height="60" as="geometry" />
        </mxCell>
        <mxCell id="wVYSVujueez5VibwqGBC-28" value="&lt;div style=&quot;font-size: 8px;&quot;&gt;Use stepped-down DC power to operate&amp;nbsp;&lt;strong data-start=&quot;1455&quot; data-end=&quot;1489&quot;&gt;low-voltage vehicle subsystems&lt;/strong&gt;, ensuring comfort, control, and communication features work efficiently&lt;/div&gt;" style="text;html=1;align=center;verticalAlign=middle;whiteSpace=wrap;rounded=0;" parent="1" vertex="1">
          <mxGeometry x="354" y="478" width="120" height="30" as="geometry" />
        </mxCell>
        <mxCell id="wVYSVujueez5VibwqGBC-29" value="&lt;font style=&quot;font-size: 16px;&quot;&gt;DC-AC&lt;/font&gt;&lt;div&gt;&lt;font style=&quot;font-size: 16px;&quot;&gt;Convertor&amp;nbsp;&lt;/font&gt;&lt;/div&gt;" style="rounded=0;whiteSpace=wrap;html=1;strokeColor=#0B08FF;" parent="1" vertex="1">
          <mxGeometry x="135" y="533" width="100" height="40" as="geometry" />
        </mxCell>
        <mxCell id="wVYSVujueez5VibwqGBC-31" value="&lt;div style=&quot;font-size: 8px;&quot;&gt;Converts battery DC power to AC power.&lt;/div&gt;&lt;div style=&quot;font-size: 8px;&quot;&gt;Feeds the Electric Motor.&lt;/div&gt;" style="ellipse;whiteSpace=wrap;html=1;strokeColor=#16FF7B;" parent="1" vertex="1">
          <mxGeometry x="340.5" y="533" width="147" height="50" as="geometry" />
        </mxCell>
        <mxCell id="wVYSVujueez5VibwqGBC-32" value="&lt;span style=&quot;font-size: 16px;&quot;&gt;GRID&lt;/span&gt;" style="rounded=0;whiteSpace=wrap;html=1;strokeColor=#0B08FF;" parent="1" vertex="1">
          <mxGeometry x="137" y="593" width="100" height="40" as="geometry" />
        </mxCell>
        <mxCell id="wVYSVujueez5VibwqGBC-33" value="&lt;div style=&quot;font-size: 8px;&quot;&gt;&lt;strong data-start=&quot;218&quot; data-end=&quot;249&quot;&gt;Source of electrical energy&lt;/strong&gt;.&lt;div&gt;&amp;nbsp; &amp;nbsp; &amp;nbsp; &amp;nbsp; &amp;nbsp; &amp;nbsp; &amp;nbsp; &amp;nbsp; &amp;nbsp; &amp;nbsp;&lt;span style=&quot;color: light-dark(rgb(0, 0, 0), rgb(255, 255, 255)); background-color: transparent;&quot;&gt;Provides&amp;nbsp;&lt;/span&gt;&lt;strong style=&quot;color: light-dark(rgb(0, 0, 0), rgb(255, 255, 255)); background-color: transparent;&quot; data-start=&quot;262&quot; data-end=&quot;274&quot;&gt;AC power&lt;/strong&gt;&lt;span style=&quot;color: light-dark(rgb(0, 0, 0), rgb(255, 255, 255)); background-color: transparent;&quot;&gt;&amp;nbsp;to charge the vehicle.&lt;/span&gt;&lt;/div&gt;&lt;/div&gt;" style="ellipse;whiteSpace=wrap;html=1;strokeColor=#16FF7B;" parent="1" vertex="1">
          <mxGeometry x="340.5" y="593" width="147" height="50" as="geometry" />
        </mxCell>
        <mxCell id="wVYSVujueez5VibwqGBC-34" value="&lt;span style=&quot;font-size: 16px;&quot;&gt;Gasoline&amp;nbsp;&lt;/span&gt;&lt;div style=&quot;font-size: 16px;&quot;&gt;Engine&lt;/div&gt;" style="rounded=0;whiteSpace=wrap;html=1;strokeColor=#0B08FF;" parent="1" vertex="1">
          <mxGeometry x="135" y="653" width="100" height="40" as="geometry" />
        </mxCell>
        <mxCell id="wVYSVujueez5VibwqGBC-35" value="&lt;div style=&quot;font-size: 8px;&quot;&gt;&lt;div&gt;Acts as an auxiliary power source.&lt;/div&gt;&lt;div&gt;&lt;br&gt;&lt;/div&gt;&lt;/div&gt;" style="ellipse;whiteSpace=wrap;html=1;strokeColor=#16FF7B;" parent="1" vertex="1">
          <mxGeometry x="333.5" y="653" width="156.5" height="46" as="geometry" />
        </mxCell>
        <mxCell id="wVYSVujueez5VibwqGBC-36" value="&lt;span style=&quot;font-size: 16px;&quot;&gt;MOTOR&lt;/span&gt;" style="rounded=0;whiteSpace=wrap;html=1;strokeColor=#0B08FF;" parent="1" vertex="1">
          <mxGeometry x="133" y="713" width="100" height="40" as="geometry" />
        </mxCell>
        <mxCell id="wVYSVujueez5VibwqGBC-37" value="&lt;div style=&quot;font-size: 8px;&quot;&gt;&lt;div&gt;&lt;span style=&quot;color: rgba(0, 0, 0, 0); font-family: monospace; font-size: 0px; text-align: start; text-wrap-mode: nowrap;&quot;&gt;%3CmxGraphModel%3E%3Croot%3E%3CmxCell%20id%3D%220%22%2F%3E%3CmxCell%20id%3D%221%22%20parent%3D%220%22%2F%3E%3CmxCell%20id%3D%222%22%20value%3D%22%26lt%3Bdiv%20style%3D%26quot%3Bfont-size%3A%208px%3B%26quot%3B%26gt%3B%26lt%3Bdiv%26gt%3BActs%20as%20an%20auxiliary%20power%20source.%26lt%3B%2Fdiv%26gt%3B%26lt%3Bdiv%26gt%3B%26lt%3Bbr%26gt%3B%26lt%3B%2Fdiv%26gt%3B%26lt%3B%2Fdiv%26gt%3B%22%20style%3D%22ellipse%3BwhiteSpace%3Dwrap%3Bhtml%3D1%3B%22%20vertex%3D%221%22%20parent%3D%221%22%3E%3CmxGeometry%20x%3D%22230.5%22%20y%3D%22450%22%20width%3D%22147%22%20height%3D%2250%22%20as%3D%22geometry%22%2F%3E%3C%2FmxCell%3E%3C%2Froot%3E%3C%2FmxGraphModel%3E&lt;/span&gt;&lt;span style=&quot;color: rgba(0, 0, 0, 0); font-family: monospace; font-size: 0px; text-align: start; text-wrap-mode: nowrap; background-color: transparent;&quot;&gt;%3CmxGraphModel%3E%3Croot%3E%3CmxCell%20id%3D%220%22%2F%3E%3CmxCell%20id%3D%221%22%20parent%3D%220%22%2F%3E%3CmxCell%20id%3D%222%22%20value%3D%22%26lt%3Bdiv%20style%3D%26quot%3Bfont-size%3A%208px%3B%26quot%3B%26gt%3B%26lt%3Bdiv%26gt%3BActs%20as%20an%20auxiliary%20power%20source.%26lt%3B%2Fdiv%26gt%3B%26lt%3Bdiv%26gt%3B%26lt%3Bbr%26gt%3B%26lt%3B%2Fdiv%26gt%3B%26lt%3B%2Fdiv%26gt%3B%22%20style%3D%22ellipse%3BwhiteSpace%3Dwrap%3Bhtml%3D1%3B%22%20vertex%3D%221%22%20parent%3D%221%22%3E%3CmxGeometry%20x%3D%22230.5%22%20y%3D%22450%22%20width%3D%22147%22%20height%3D%2250%22%20as%3D%22geometry%22%2F%3E%3C%2FmxCell%3E%3C%2Froot%3E%3C%2FmxGraphModel%3E&lt;/span&gt;&lt;/div&gt;&lt;/div&gt;" style="ellipse;whiteSpace=wrap;html=1;strokeColor=#1BFF50;" parent="1" vertex="1">
          <mxGeometry x="340.5" y="708" width="147" height="50" as="geometry" />
        </mxCell>
        <mxCell id="wVYSVujueez5VibwqGBC-38" value="&lt;span style=&quot;font-size: 8px;&quot;&gt;Receives AC power and&lt;/span&gt;&lt;div style=&quot;font-size: 8px;&quot;&gt;&amp;nbsp;produces rotational mechanical energy&lt;/div&gt;" style="text;html=1;align=center;verticalAlign=middle;whiteSpace=wrap;rounded=0;fillColor=default;" parent="1" vertex="1">
          <mxGeometry x="352" y="718" width="130" height="30" as="geometry" />
        </mxCell>
        <mxCell id="wVYSVujueez5VibwqGBC-39" value="&lt;span style=&quot;color: rgba(0, 0, 0, 0); font-family: monospace; font-size: 0px; text-align: start; text-wrap-mode: nowrap;&quot;&gt;%3CmxGraphModel%3E%3Croot%3E%3CmxCell%20id%3D%220%22%2F%3E%3CmxCell%20id%3D%221%22%20parent%3D%220%22%2F%3E%3CmxCell%20id%3D%222%22%20value%3D%22%26lt%3Bspan%20style%3D%26quot%3Bfont-size%3A%2016px%3B%26quot%3B%26gt%3BMOTOR%26lt%3B%2Fspan%26gt%3B%22%20style%3D%22rounded%3D0%3BwhiteSpace%3Dwrap%3Bhtml%3D1%3B%22%20vertex%3D%221%22%20parent%3D%221%22%3E%3CmxGeometry%20x%3D%2230%22%20y%3D%22510%22%20width%3D%22100%22%20height%3D%2240%22%20as%3D%22geometry%22%2F%3E%3C%2FmxCell%3E%3C%2Froot%3E%3C%2FmxGraphModel%3E&lt;/span&gt;" style="rounded=0;whiteSpace=wrap;html=1;strokeColor=#0B08FF;" parent="1" vertex="1">
          <mxGeometry x="135" y="768" width="100" height="40" as="geometry" />
        </mxCell>
        <mxCell id="wVYSVujueez5VibwqGBC-43" value="" style="ellipse;whiteSpace=wrap;html=1;strokeColor=#27FF59;" parent="1" vertex="1">
          <mxGeometry x="351.5" y="772" width="130" height="47" as="geometry" />
        </mxCell>
        <mxCell id="wVYSVujueez5VibwqGBC-44" value="&lt;span style=&quot;font-size: 18px;&quot;&gt;Mech&lt;/span&gt;&lt;div style=&quot;font-size: 18px;&quot;&gt;Traction&lt;/div&gt;" style="text;html=1;align=center;verticalAlign=middle;whiteSpace=wrap;rounded=0;" parent="1" vertex="1">
          <mxGeometry x="153" y="773" width="60" height="30" as="geometry" />
        </mxCell>
        <mxCell id="wVYSVujueez5VibwqGBC-45" value="&lt;font style=&quot;font-size: 16px;&quot;&gt;DC Loads&lt;/font&gt;&lt;span style=&quot;color: light-dark(rgb(0, 0, 0), rgb(255, 255, 255)); background-color: transparent; font-size: 16px;&quot;&gt;&amp;nbsp;&lt;/span&gt;" style="text;html=1;align=center;verticalAlign=middle;whiteSpace=wrap;rounded=0;" parent="1" vertex="1">
          <mxGeometry x="153" y="477" width="60" height="30" as="geometry" />
        </mxCell>
        <mxCell id="wVYSVujueez5VibwqGBC-46" value="&lt;font style=&quot;font-size: 16px;&quot;&gt;AC-DC&lt;/font&gt;&lt;div&gt;&lt;font style=&quot;font-size: 16px;&quot;&gt;Convertor&lt;/font&gt;&lt;/div&gt;" style="text;html=1;align=center;verticalAlign=middle;whiteSpace=wrap;rounded=0;" parent="1" vertex="1">
          <mxGeometry x="155" y="405" width="60" height="30" as="geometry" />
        </mxCell>
        <mxCell id="wVYSVujueez5VibwqGBC-47" value="&lt;span style=&quot;font-size: 16px;&quot;&gt;Battery&amp;nbsp;&lt;/span&gt;&lt;span style=&quot;color: light-dark(rgb(0, 0, 0), rgb(255, 255, 255)); background-color: transparent; font-size: 16px;&quot;&gt;Pack&lt;/span&gt;" style="text;html=1;align=center;verticalAlign=middle;whiteSpace=wrap;rounded=0;" parent="1" vertex="1">
          <mxGeometry x="158" y="348" width="60" height="30" as="geometry" />
        </mxCell>
        <mxCell id="wVYSVujueez5VibwqGBC-48" value="&lt;font style=&quot;font-size: 16px;&quot;&gt;DC-DC&lt;/font&gt;&lt;div&gt;&lt;font style=&quot;font-size: 16px;&quot;&gt;Convertor&amp;nbsp;&lt;/font&gt;&lt;/div&gt;" style="text;html=1;align=center;verticalAlign=middle;whiteSpace=wrap;rounded=0;" parent="1" vertex="1">
          <mxGeometry x="150" y="278" width="60" height="30" as="geometry" />
        </mxCell>
        <mxCell id="wVYSVujueez5VibwqGBC-53" value="" style="endArrow=classic;html=1;rounded=0;strokeWidth=2;" parent="1" edge="1">
          <mxGeometry width="50" height="50" relative="1" as="geometry">
            <mxPoint x="135" y="794" as="sourcePoint" />
            <mxPoint x="82" y="399" as="targetPoint" />
            <Array as="points">
              <mxPoint x="82" y="794" />
            </Array>
          </mxGeometry>
        </mxCell>
        <mxCell id="wVYSVujueez5VibwqGBC-11" value="&lt;div style=&quot;font-size: 8px;&quot;&gt;DC-DC Converter (for low-voltage loads)&lt;/div&gt;&lt;div style=&quot;font-size: 8px;&quot;&gt;DC-AC Converter (to drive the motor&lt;/div&gt;" style="text;html=1;align=center;verticalAlign=middle;whiteSpace=wrap;rounded=0;" parent="1" vertex="1">
          <mxGeometry x="354" y="348" width="120" height="30" as="geometry" />
        </mxCell>
        <mxCell id="wVYSVujueez5VibwqGBC-54" value="" style="rounded=0;whiteSpace=wrap;html=1;" parent="1" vertex="1">
          <mxGeometry x="132" y="193" width="138" height="36" as="geometry" />
        </mxCell>
        <mxCell id="wVYSVujueez5VibwqGBC-55" value="HYBDIR CAR Concept" style="text;html=1;align=center;verticalAlign=middle;whiteSpace=wrap;rounded=0;" parent="1" vertex="1">
          <mxGeometry x="154.5" y="196" width="83.5" height="30" as="geometry" />
        </mxCell>
        <mxCell id="wVYSVujueez5VibwqGBC-58" value="" style="endArrow=none;html=1;rounded=0;" parent="1" edge="1">
          <mxGeometry width="50" height="50" relative="1" as="geometry">
            <mxPoint x="80" y="493" as="sourcePoint" />
            <mxPoint x="135" y="493" as="targetPoint" />
          </mxGeometry>
        </mxCell>
        <mxCell id="wVYSVujueez5VibwqGBC-59" value="" style="endArrow=none;html=1;rounded=0;" parent="1" edge="1">
          <mxGeometry width="50" height="50" relative="1" as="geometry">
            <mxPoint x="81" y="557" as="sourcePoint" />
            <mxPoint x="136" y="557" as="targetPoint" />
          </mxGeometry>
        </mxCell>
        <mxCell id="wVYSVujueez5VibwqGBC-60" value="" style="endArrow=none;html=1;rounded=0;" parent="1" edge="1">
          <mxGeometry width="50" height="50" relative="1" as="geometry">
            <mxPoint x="82" y="616" as="sourcePoint" />
            <mxPoint x="137" y="616" as="targetPoint" />
          </mxGeometry>
        </mxCell>
        <mxCell id="wVYSVujueez5VibwqGBC-61" value="" style="endArrow=none;html=1;rounded=0;" parent="1" edge="1">
          <mxGeometry width="50" height="50" relative="1" as="geometry">
            <mxPoint x="80" y="672" as="sourcePoint" />
            <mxPoint x="135" y="672" as="targetPoint" />
          </mxGeometry>
        </mxCell>
        <mxCell id="wVYSVujueez5VibwqGBC-62" value="" style="endArrow=none;html=1;rounded=0;" parent="1" edge="1">
          <mxGeometry width="50" height="50" relative="1" as="geometry">
            <mxPoint x="80" y="731" as="sourcePoint" />
            <mxPoint x="135" y="731" as="targetPoint" />
          </mxGeometry>
        </mxCell>
        <mxCell id="wVYSVujueez5VibwqGBC-64" value="" style="endArrow=none;html=1;rounded=0;" parent="1" edge="1">
          <mxGeometry width="50" height="50" relative="1" as="geometry">
            <mxPoint x="81" y="421" as="sourcePoint" />
            <mxPoint x="136" y="421" as="targetPoint" />
          </mxGeometry>
        </mxCell>
        <mxCell id="wVYSVujueez5VibwqGBC-65" value="" style="endArrow=none;html=1;rounded=0;" parent="1" edge="1">
          <mxGeometry width="50" height="50" relative="1" as="geometry">
            <mxPoint x="82" y="362" as="sourcePoint" />
            <mxPoint x="137" y="362" as="targetPoint" />
          </mxGeometry>
        </mxCell>
        <mxCell id="wVYSVujueez5VibwqGBC-66" value="" style="endArrow=none;html=1;rounded=0;strokeWidth=2;" parent="1" edge="1">
          <mxGeometry width="50" height="50" relative="1" as="geometry">
            <mxPoint x="82" y="400" as="sourcePoint" />
            <mxPoint x="132" y="214" as="targetPoint" />
            <Array as="points">
              <mxPoint x="79" y="214" />
            </Array>
          </mxGeometry>
        </mxCell>
        <mxCell id="wVYSVujueez5VibwqGBC-69" value="" style="endArrow=none;html=1;rounded=0;" parent="1" edge="1">
          <mxGeometry width="50" height="50" relative="1" as="geometry">
            <mxPoint x="80" y="301" as="sourcePoint" />
            <mxPoint x="135" y="301" as="targetPoint" />
          </mxGeometry>
        </mxCell>
        <mxCell id="wVYSVujueez5VibwqGBC-72" value="" style="endArrow=classic;html=1;rounded=0;exitX=1;exitY=0.5;exitDx=0;exitDy=0;strokeWidth=2;" parent="1" source="wVYSVujueez5VibwqGBC-43" edge="1">
          <mxGeometry width="50" height="50" relative="1" as="geometry">
            <mxPoint x="493.39300000000003" y="779.6700000000001" as="sourcePoint" />
            <mxPoint x="570" y="397" as="targetPoint" />
            <Array as="points">
              <mxPoint x="570" y="799" />
            </Array>
          </mxGeometry>
        </mxCell>
        <mxCell id="wVYSVujueez5VibwqGBC-74" value="" style="ellipse;whiteSpace=wrap;html=1;labelBorderColor=#3DFF4A;strokeColor=#3DFF4A;" parent="1" vertex="1">
          <mxGeometry x="351" y="189" width="157" height="40" as="geometry" />
        </mxCell>
        <mxCell id="wVYSVujueez5VibwqGBC-76" value="" style="endArrow=none;html=1;rounded=0;strokeWidth=2;" parent="1" edge="1">
          <mxGeometry width="50" height="50" relative="1" as="geometry">
            <mxPoint x="506.5" y="209" as="sourcePoint" />
            <mxPoint x="570" y="399" as="targetPoint" />
            <Array as="points">
              <mxPoint x="570" y="209" />
            </Array>
          </mxGeometry>
        </mxCell>
        <mxCell id="wVYSVujueez5VibwqGBC-82" value="" style="ellipse;whiteSpace=wrap;html=1;aspect=fixed;" parent="1" vertex="1">
          <mxGeometry x="343" y="204" width="10" height="10" as="geometry" />
        </mxCell>
        <mxCell id="wVYSVujueez5VibwqGBC-83" value="" style="endArrow=none;html=1;rounded=0;exitX=1;exitY=0.5;exitDx=0;exitDy=0;" parent="1" edge="1">
          <mxGeometry width="50" height="50" relative="1" as="geometry">
            <mxPoint x="270" y="208" as="sourcePoint" />
            <mxPoint x="343" y="210" as="targetPoint" />
          </mxGeometry>
        </mxCell>
        <mxCell id="wVYSVujueez5VibwqGBC-84" value="" style="ellipse;whiteSpace=wrap;html=1;aspect=fixed;" parent="1" vertex="1">
          <mxGeometry x="333" y="283" width="10" height="10" as="geometry" />
        </mxCell>
        <mxCell id="wVYSVujueez5VibwqGBC-85" value="" style="endArrow=none;html=1;rounded=0;" parent="1" edge="1">
          <mxGeometry width="50" height="50" relative="1" as="geometry">
            <mxPoint x="240" y="289" as="sourcePoint" />
            <mxPoint x="333" y="289" as="targetPoint" />
          </mxGeometry>
        </mxCell>
        <mxCell id="wVYSVujueez5VibwqGBC-86" value="" style="ellipse;whiteSpace=wrap;html=1;aspect=fixed;" parent="1" vertex="1">
          <mxGeometry x="333" y="358" width="10" height="10" as="geometry" />
        </mxCell>
        <mxCell id="wVYSVujueez5VibwqGBC-87" value="" style="endArrow=none;html=1;rounded=0;" parent="1" edge="1">
          <mxGeometry width="50" height="50" relative="1" as="geometry">
            <mxPoint x="240" y="364" as="sourcePoint" />
            <mxPoint x="333" y="364" as="targetPoint" />
          </mxGeometry>
        </mxCell>
        <mxCell id="wVYSVujueez5VibwqGBC-88" value="" style="ellipse;whiteSpace=wrap;html=1;aspect=fixed;" parent="1" vertex="1">
          <mxGeometry x="328" y="418" width="10" height="10" as="geometry" />
        </mxCell>
        <mxCell id="wVYSVujueez5VibwqGBC-89" value="" style="endArrow=none;html=1;rounded=0;" parent="1" edge="1">
          <mxGeometry width="50" height="50" relative="1" as="geometry">
            <mxPoint x="235" y="424" as="sourcePoint" />
            <mxPoint x="328" y="424" as="targetPoint" />
          </mxGeometry>
        </mxCell>
        <mxCell id="wVYSVujueez5VibwqGBC-90" value="" style="ellipse;whiteSpace=wrap;html=1;aspect=fixed;" parent="1" vertex="1">
          <mxGeometry x="328" y="487" width="10" height="10" as="geometry" />
        </mxCell>
        <mxCell id="wVYSVujueez5VibwqGBC-91" value="" style="endArrow=none;html=1;rounded=0;" parent="1" edge="1">
          <mxGeometry width="50" height="50" relative="1" as="geometry">
            <mxPoint x="235" y="493" as="sourcePoint" />
            <mxPoint x="328" y="493" as="targetPoint" />
          </mxGeometry>
        </mxCell>
        <mxCell id="wVYSVujueez5VibwqGBC-92" value="" style="ellipse;whiteSpace=wrap;html=1;aspect=fixed;" parent="1" vertex="1">
          <mxGeometry x="328" y="548" width="10" height="10" as="geometry" />
        </mxCell>
        <mxCell id="wVYSVujueez5VibwqGBC-93" value="" style="endArrow=none;html=1;rounded=0;" parent="1" edge="1">
          <mxGeometry width="50" height="50" relative="1" as="geometry">
            <mxPoint x="235" y="554" as="sourcePoint" />
            <mxPoint x="328" y="554" as="targetPoint" />
          </mxGeometry>
        </mxCell>
        <mxCell id="wVYSVujueez5VibwqGBC-94" value="" style="ellipse;whiteSpace=wrap;html=1;aspect=fixed;" parent="1" vertex="1">
          <mxGeometry x="331" y="613" width="10" height="10" as="geometry" />
        </mxCell>
        <mxCell id="wVYSVujueez5VibwqGBC-95" value="" style="endArrow=none;html=1;rounded=0;" parent="1" edge="1">
          <mxGeometry width="50" height="50" relative="1" as="geometry">
            <mxPoint x="238" y="619" as="sourcePoint" />
            <mxPoint x="331" y="619" as="targetPoint" />
          </mxGeometry>
        </mxCell>
        <mxCell id="wVYSVujueez5VibwqGBC-96" value="" style="ellipse;whiteSpace=wrap;html=1;aspect=fixed;" parent="1" vertex="1">
          <mxGeometry x="326" y="668" width="10" height="10" as="geometry" />
        </mxCell>
        <mxCell id="wVYSVujueez5VibwqGBC-97" value="" style="endArrow=none;html=1;rounded=0;" parent="1" edge="1">
          <mxGeometry width="50" height="50" relative="1" as="geometry">
            <mxPoint x="233" y="674" as="sourcePoint" />
            <mxPoint x="326" y="674" as="targetPoint" />
          </mxGeometry>
        </mxCell>
        <mxCell id="wVYSVujueez5VibwqGBC-98" value="" style="ellipse;whiteSpace=wrap;html=1;aspect=fixed;" parent="1" vertex="1">
          <mxGeometry x="329" y="728" width="10" height="10" as="geometry" />
        </mxCell>
        <mxCell id="wVYSVujueez5VibwqGBC-99" value="" style="endArrow=none;html=1;rounded=0;" parent="1" edge="1">
          <mxGeometry width="50" height="50" relative="1" as="geometry">
            <mxPoint x="235" y="734" as="sourcePoint" />
            <mxPoint x="328" y="734" as="targetPoint" />
          </mxGeometry>
        </mxCell>
        <mxCell id="wVYSVujueez5VibwqGBC-102" value="" style="ellipse;whiteSpace=wrap;html=1;aspect=fixed;" parent="1" vertex="1">
          <mxGeometry x="342" y="782" width="10" height="10" as="geometry" />
        </mxCell>
        <mxCell id="wVYSVujueez5VibwqGBC-103" value="" style="endArrow=none;html=1;rounded=0;" parent="1" edge="1">
          <mxGeometry width="50" height="50" relative="1" as="geometry">
            <mxPoint x="234" y="795" as="sourcePoint" />
            <mxPoint x="340" y="789" as="targetPoint" />
          </mxGeometry>
        </mxCell>
        <mxCell id="wVYSVujueez5VibwqGBC-107" value="" style="endArrow=none;html=1;rounded=0;" parent="1" edge="1">
          <mxGeometry width="50" height="50" relative="1" as="geometry">
            <mxPoint x="487.5" y="558" as="sourcePoint" />
            <mxPoint x="570" y="559" as="targetPoint" />
          </mxGeometry>
        </mxCell>
        <mxCell id="wVYSVujueez5VibwqGBC-108" value="" style="endArrow=none;html=1;rounded=0;" parent="1" edge="1">
          <mxGeometry width="50" height="50" relative="1" as="geometry">
            <mxPoint x="488" y="492.5" as="sourcePoint" />
            <mxPoint x="570.5" y="493.5" as="targetPoint" />
          </mxGeometry>
        </mxCell>
        <mxCell id="wVYSVujueez5VibwqGBC-109" value="" style="endArrow=none;html=1;rounded=0;" parent="1" edge="1">
          <mxGeometry width="50" height="50" relative="1" as="geometry">
            <mxPoint x="486.5" y="418" as="sourcePoint" />
            <mxPoint x="569" y="419" as="targetPoint" />
          </mxGeometry>
        </mxCell>
        <mxCell id="wVYSVujueez5VibwqGBC-110" value="" style="endArrow=none;html=1;rounded=0;" parent="1" edge="1">
          <mxGeometry width="50" height="50" relative="1" as="geometry">
            <mxPoint x="487.5" y="358" as="sourcePoint" />
            <mxPoint x="570" y="359" as="targetPoint" />
          </mxGeometry>
        </mxCell>
        <mxCell id="wVYSVujueez5VibwqGBC-111" value="" style="endArrow=none;html=1;rounded=0;" parent="1" edge="1">
          <mxGeometry width="50" height="50" relative="1" as="geometry">
            <mxPoint x="487" y="287.5" as="sourcePoint" />
            <mxPoint x="569.5" y="288.5" as="targetPoint" />
          </mxGeometry>
        </mxCell>
        <mxCell id="wVYSVujueez5VibwqGBC-112" value="" style="endArrow=none;html=1;rounded=0;" parent="1" edge="1">
          <mxGeometry width="50" height="50" relative="1" as="geometry">
            <mxPoint x="487.5" y="617.5" as="sourcePoint" />
            <mxPoint x="570" y="618.5" as="targetPoint" />
          </mxGeometry>
        </mxCell>
        <mxCell id="wVYSVujueez5VibwqGBC-113" value="" style="endArrow=none;html=1;rounded=0;" parent="1" edge="1">
          <mxGeometry width="50" height="50" relative="1" as="geometry">
            <mxPoint x="487" y="677" as="sourcePoint" />
            <mxPoint x="569.5" y="678" as="targetPoint" />
          </mxGeometry>
        </mxCell>
        <mxCell id="wVYSVujueez5VibwqGBC-114" value="" style="endArrow=none;html=1;rounded=0;" parent="1" edge="1">
          <mxGeometry width="50" height="50" relative="1" as="geometry">
            <mxPoint x="487.5" y="738" as="sourcePoint" />
            <mxPoint x="570" y="739" as="targetPoint" />
          </mxGeometry>
        </mxCell>
        <mxCell id="wVYSVujueez5VibwqGBC-117" value="&lt;span style=&quot;font-size: 8px;&quot;&gt;The mechanical output from the motor drives the vehicle wheels&lt;/span&gt;" style="text;html=1;align=center;verticalAlign=middle;whiteSpace=wrap;rounded=0;" parent="1" vertex="1">
          <mxGeometry x="356" y="782" width="116" height="30" as="geometry" />
        </mxCell>
        <mxCell id="wVYSVujueez5VibwqGBC-118" value="&lt;h1 style=&quot;margin-top: 0px;&quot;&gt;HYBRID CAR SYSTEM ARCHITECTURE&amp;nbsp;&lt;/h1&gt;" style="text;html=1;whiteSpace=wrap;overflow=hidden;rounded=0;" parent="1" vertex="1">
          <mxGeometry x="106" y="126" width="484" height="70" as="geometry" />
        </mxCell>
        <mxCell id="2a-oq4m7E9XStb252LqV-1" value="System Operating" style="text;html=1;align=center;verticalAlign=middle;whiteSpace=wrap;rounded=0;" vertex="1" parent="1">
          <mxGeometry x="385.5" y="193" width="60" height="30" as="geometry" />
        </mxCell>
        <mxCell id="2a-oq4m7E9XStb252LqV-2" value="&lt;h1 style=&quot;margin-top: 0px;&quot;&gt;NIKOMEZE Benjamin/2409000401&lt;/h1&gt;&lt;div&gt;&lt;h1 style=&quot;margin-top: 0px;&quot;&gt;NIZEYIMANA Daniel /2409001236&lt;/h1&gt;&lt;div&gt;&lt;h1 style=&quot;margin-top: 0px;&quot;&gt;HAKIZIMANA Theogene/2405000570&lt;/h1&gt;&lt;div&gt;&lt;br&gt;&lt;/div&gt;&lt;/div&gt;&lt;div&gt;&lt;br&gt;&lt;/div&gt;&lt;/div&gt;" style="text;html=1;whiteSpace=wrap;overflow=hidden;rounded=0;fontSize=10;" vertex="1" parent="1">
          <mxGeometry x="160" y="6" width="599" height="120" as="geometry" />
        </mxCell>
      </root>
    </mxGraphModel>
  </diagram>
</mxfile>
